<?xml version="1.0" encoding="UTF-8"?>
<svg width="761px" height="762px" viewBox="0 0 761 762" version="1.1" xmlns="http://www.w3.org/2000/svg" xmlns:xlink="http://www.w3.org/1999/xlink">
    <title>Group 9</title>
    <defs>
        <filter x="-26.8%" y="-26.8%" width="153.7%" height="153.7%" filterUnits="objectBoundingBox" id="filter-1">
            <feOffset dx="0" dy="2" in="SourceAlpha" result="shadowOffsetOuter1"></feOffset>
            <feGaussianBlur stdDeviation="37" in="shadowOffsetOuter1" result="shadowBlurOuter1"></feGaussianBlur>
            <feColorMatrix values="0 0 0 0 0   0 0 0 0 0.792156863   0 0 0 0 0.97254902  0 0 0 1 0" type="matrix" in="shadowBlurOuter1" result="shadowMatrixOuter1"></feColorMatrix>
            <feMerge>
                <feMergeNode in="shadowMatrixOuter1"></feMergeNode>
                <feMergeNode in="SourceGraphic"></feMergeNode>
            </feMerge>
        </filter>
        <linearGradient x1="50%" y1="0%" x2="50%" y2="100%" id="linearGradient-2">
            <stop stop-color="#FF1E61" offset="0%"></stop>
            <stop stop-color="#00D1FF" offset="100%"></stop>
        </linearGradient>
        <linearGradient x1="50%" y1="0%" x2="50%" y2="100%" id="linearGradient-3">
            <stop stop-color="#FF1E61" offset="0%"></stop>
            <stop stop-color="#00D1FF" offset="100%"></stop>
        </linearGradient>
        <linearGradient x1="50%" y1="0%" x2="50%" y2="100%" id="linearGradient-4">
            <stop stop-color="#FF1E61" offset="0%"></stop>
            <stop stop-color="#00D1FF" offset="100%"></stop>
        </linearGradient>
        <linearGradient x1="50%" y1="0%" x2="50%" y2="100%" id="linearGradient-5">
            <stop stop-color="#FF1E61" offset="0%"></stop>
            <stop stop-color="#00D1FF" offset="100%"></stop>
        </linearGradient>
        <linearGradient x1="50%" y1="0%" x2="50%" y2="100%" id="linearGradient-6">
            <stop stop-color="#FF1E61" offset="0%"></stop>
            <stop stop-color="#00D1FF" offset="100%"></stop>
        </linearGradient>
        <linearGradient x1="50%" y1="0%" x2="50%" y2="100%" id="linearGradient-7">
            <stop stop-color="#FF1E61" offset="0%"></stop>
            <stop stop-color="#00D1FF" offset="100%"></stop>
        </linearGradient>
        <linearGradient x1="50%" y1="0%" x2="50%" y2="100%" id="linearGradient-8">
            <stop stop-color="#FF1E61" offset="0%"></stop>
            <stop stop-color="#00D1FF" offset="100%"></stop>
        </linearGradient>
        <linearGradient x1="50%" y1="0%" x2="50%" y2="100%" id="linearGradient-9">
            <stop stop-color="#FF1E61" offset="0%"></stop>
            <stop stop-color="#00D1FF" offset="100%"></stop>
        </linearGradient>
        <linearGradient x1="50%" y1="0%" x2="50%" y2="100%" id="linearGradient-10">
            <stop stop-color="#FF1E61" offset="0%"></stop>
            <stop stop-color="#00D1FF" offset="100%"></stop>
        </linearGradient>
        <linearGradient x1="50%" y1="0%" x2="50%" y2="100%" id="linearGradient-11">
            <stop stop-color="#FF1E61" offset="0%"></stop>
            <stop stop-color="#00D1FF" offset="100%"></stop>
        </linearGradient>
        <linearGradient x1="50%" y1="0%" x2="50%" y2="100%" id="linearGradient-12">
            <stop stop-color="#FF1E61" offset="0%"></stop>
            <stop stop-color="#00D1FF" offset="100%"></stop>
        </linearGradient>
        <linearGradient x1="49.9999908%" y1="0%" x2="49.9999908%" y2="100%" id="linearGradient-13">
            <stop stop-color="#ED1EFF" offset="0%"></stop>
            <stop stop-color="#00D1FF" offset="100%"></stop>
        </linearGradient>
        <linearGradient x1="14.6446595%" y1="14.6446532%" x2="85.3552962%" y2="85.3552951%" id="linearGradient-14">
            <stop stop-color="#ED1EFF" offset="0%"></stop>
            <stop stop-color="#00D1FF" offset="100%"></stop>
        </linearGradient>
        <linearGradient x1="49.9998943%" y1="0%" x2="49.9998943%" y2="100%" id="linearGradient-15">
            <stop stop-color="#ED1EFF" offset="0%"></stop>
            <stop stop-color="#00D1FF" offset="100%"></stop>
        </linearGradient>
        <linearGradient x1="50.0001141%" y1="0%" x2="50.0001141%" y2="100%" id="linearGradient-16">
            <stop stop-color="#ED1EFF" offset="0%"></stop>
            <stop stop-color="#00D1FF" offset="100%"></stop>
        </linearGradient>
        <linearGradient x1="14.6445948%" y1="14.6445848%" x2="85.3552019%" y2="85.3554152%" id="linearGradient-17">
            <stop stop-color="#ED1EFF" offset="0%"></stop>
            <stop stop-color="#00D1FF" offset="100%"></stop>
        </linearGradient>
        <linearGradient x1="50%" y1="0%" x2="50%" y2="100%" id="linearGradient-18">
            <stop stop-color="#ED1EFF" offset="0%"></stop>
            <stop stop-color="#00D1FF" offset="100%"></stop>
        </linearGradient>
        <linearGradient x1="50%" y1="0%" x2="50%" y2="100%" id="linearGradient-19">
            <stop stop-color="#ED1EFF" offset="0%"></stop>
            <stop stop-color="#00D1FF" offset="100%"></stop>
        </linearGradient>
        <linearGradient x1="14.6446744%" y1="14.6446191%" x2="85.3553256%" y2="85.3553809%" id="linearGradient-20">
            <stop stop-color="#ED1EFF" offset="0%"></stop>
            <stop stop-color="#00D1FF" offset="100%"></stop>
        </linearGradient>
        <linearGradient x1="50%" y1="0%" x2="50%" y2="100%" id="linearGradient-21">
            <stop stop-color="#ED1EFF" offset="0%"></stop>
            <stop stop-color="#00D1FF" offset="100%"></stop>
        </linearGradient>
        <linearGradient x1="14.644723%" y1="14.644184%" x2="85.355277%" y2="85.355816%" id="linearGradient-22">
            <stop stop-color="#ED1EFF" offset="0%"></stop>
            <stop stop-color="#00D1FF" offset="100%"></stop>
        </linearGradient>
        <linearGradient x1="50%" y1="0%" x2="50%" y2="100%" id="linearGradient-23">
            <stop stop-color="#ED1EFF" offset="0%"></stop>
            <stop stop-color="#00D1FF" offset="100%"></stop>
        </linearGradient>
        <linearGradient x1="49.9991088%" y1="0%" x2="49.9991088%" y2="100%" id="linearGradient-24">
            <stop stop-color="#ED1EFF" offset="0%"></stop>
            <stop stop-color="#00D1FF" offset="100%"></stop>
        </linearGradient>
        <linearGradient x1="49.9996887%" y1="0%" x2="49.9996887%" y2="100%" id="linearGradient-25">
            <stop stop-color="#00D1FF" offset="0%"></stop>
            <stop stop-color="#00D1FF" stop-opacity="0.51" offset="100%"></stop>
        </linearGradient>
    </defs>
    <g id="Signature" stroke="none" stroke-width="1" fill="none" fill-rule="evenodd">
        <g id="Landing-Page-Concept---Quasar" transform="translate(-45.000000, -806.000000)">
            <g id="Group-9" transform="translate(153.000000, 915.000000)">
                <g id="build-circle" filter="url(#filter-1)">
                    <line x1="272.096" y1="0.8038" x2="272.096" y2="543.354" id="Path" stroke="url(#linearGradient-2)" stroke-width="1.52972" stroke-linecap="round"></line>
                    <line x1="229.689" y1="4.1116" x2="314.568" y2="540.046" id="Path" stroke="url(#linearGradient-3)" stroke-width="1.52972" stroke-linecap="round"></line>
                    <line x1="188.275" y1="14.035" x2="355.982" y2="530.122" id="Path" stroke="url(#linearGradient-4)" stroke-width="1.52972" stroke-linecap="round"></line>
                    <line x1="148.977" y1="30.376" x2="395.277" y2="513.782" id="Path" stroke="url(#linearGradient-5)" stroke-width="1.52972" stroke-linecap="round"></line>
                    <line x1="112.657" y1="52.604" x2="431.598" y2="491.553" id="Path" stroke="url(#linearGradient-6)" stroke-width="1.52972" stroke-linecap="round"></line>
                    <line x1="80.308" y1="80.258" x2="463.95" y2="463.9" id="Path" stroke="url(#linearGradient-7)" stroke-width="1.52972" stroke-linecap="round"></line>
                    <line x1="52.654" y1="112.608" x2="491.603" y2="431.549" id="Path" stroke="url(#linearGradient-8)" stroke-width="1.52972" stroke-linecap="round"></line>
                    <line x1="30.425" y1="148.928" x2="513.831" y2="395.229" id="Path" stroke="url(#linearGradient-9)" stroke-width="1.52972" stroke-linecap="round"></line>
                    <line x1="14.085" y1="188.225" x2="530.172" y2="355.932" id="Path" stroke="url(#linearGradient-10)" stroke-width="1.52972" stroke-linecap="round"></line>
                    <line x1="4.1611" y1="229.639" x2="540.095" y2="314.518" id="Path" stroke="url(#linearGradient-11)" stroke-width="1.52972" stroke-linecap="round"></line>
                    <line x1="0.8535" y1="272.046" x2="543.404" y2="272.046" id="Path" stroke="url(#linearGradient-12)" stroke-width="1.52972" stroke-linecap="round"></line>
                    <line x1="4.1611" y1="314.518" x2="540.095" y2="229.639" id="Path" stroke="url(#linearGradient-11)" stroke-width="1.52972" stroke-linecap="round"></line>
                    <line x1="14.085" y1="355.932" x2="530.172" y2="188.225" id="Path" stroke="url(#linearGradient-10)" stroke-width="1.52972" stroke-linecap="round"></line>
                    <line x1="30.425" y1="395.229" x2="513.831" y2="148.928" id="Path" stroke="url(#linearGradient-9)" stroke-width="1.52972" stroke-linecap="round"></line>
                    <line x1="52.654" y1="431.549" x2="491.603" y2="112.608" id="Path" stroke="url(#linearGradient-8)" stroke-width="1.52972" stroke-linecap="round"></line>
                    <line x1="80.308" y1="463.9" x2="463.95" y2="80.258" id="Path" stroke="url(#linearGradient-7)" stroke-width="1.52972" stroke-linecap="round"></line>
                    <line x1="112.657" y1="491.553" x2="431.598" y2="52.604" id="Path" stroke="url(#linearGradient-6)" stroke-width="1.52972" stroke-linecap="round"></line>
                    <line x1="148.977" y1="513.782" x2="395.277" y2="30.376" id="Path" stroke="url(#linearGradient-5)" stroke-width="1.52972" stroke-linecap="round"></line>
                    <line x1="188.275" y1="530.122" x2="355.982" y2="14.035" id="Path" stroke="url(#linearGradient-4)" stroke-width="1.52972" stroke-linecap="round"></line>
                    <line x1="229.689" y1="540.046" x2="314.568" y2="4.1116" id="Path" stroke="url(#linearGradient-3)" stroke-width="1.52972" stroke-linecap="round"></line>
                    <path d="M272.095,543.354 C421.935,543.354 543.403,421.885 543.403,272.046 C543.403,122.206 421.935,0.7375 272.095,0.7375 C122.256,0.7375 0.7871,122.206 0.7871,272.046 C0.7871,421.885 122.256,543.354 272.095,543.354 Z" id="Path" stroke="url(#linearGradient-13)" stroke-width="1.52972" stroke-linecap="round"></path>
                    <path d="M451.617,451.617 C550.774,352.46 550.774,191.696 451.617,92.539 C352.46,-6.6177 191.696,-6.6176 92.539,92.539 C-6.6177,191.696 -6.6177,352.46 92.539,451.617 C191.696,550.774 352.46,550.774 451.617,451.617 Z" id="Path" stroke="url(#linearGradient-14)" stroke-width="1.52972" opacity="0.35" stroke-linecap="round"></path>
                    <path d="M272.094,508.621 C402.752,508.621 508.67,402.703 508.67,272.046 C508.67,141.388 402.752,35.47 272.094,35.47 C141.437,35.47 35.519,141.388 35.519,272.046 C35.519,402.703 141.437,508.621 272.094,508.621 Z" id="Path" stroke="url(#linearGradient-15)" stroke-width="1.52972" opacity="0.35" stroke-linecap="round"></path>
                    <path d="M272.096,491.222 C393.144,491.222 491.272,393.094 491.272,272.046 C491.272,150.998 393.144,52.869 272.096,52.869 C151.048,52.869 52.919,150.998 52.919,272.046 C52.919,393.094 151.048,491.222 272.096,491.222 Z" id="Path" stroke="url(#linearGradient-16)" stroke-width="1.52972" opacity="0.35" stroke-linecap="round"></path>
                    <path d="M272.095,473.823 C383.534,473.823 473.872,383.484 473.872,272.046 C473.872,160.607 383.534,70.268 272.095,70.268 C160.656,70.268 70.317,160.607 70.317,272.046 C70.317,383.484 160.656,473.823 272.095,473.823 Z" id="Path" stroke="url(#linearGradient-16)" stroke-width="1.52972" opacity="0.35" stroke-linecap="round"></path>
                    <path d="M402.498,402.499 C474.528,330.469 474.528,213.687 402.498,141.657 C330.469,69.628 213.686,69.628 141.657,141.657 C69.628,213.687 69.628,330.469 141.657,402.499 C213.686,474.528 330.469,474.528 402.498,402.499 Z" id="Path" stroke="url(#linearGradient-17)" stroke-width="1.52972" opacity="0.35" stroke-linecap="round"></path>
                    <path d="M272.095,439.091 C364.352,439.091 439.14,364.302 439.14,272.046 C439.14,179.789 364.352,105 272.095,105 C179.839,105 105.05,179.789 105.05,272.046 C105.05,364.302 179.839,439.091 272.095,439.091 Z" id="Path" stroke="url(#linearGradient-18)" stroke-width="1.52972" opacity="0.35" stroke-linecap="round"></path>
                    <path d="M272.096,421.692 C354.744,421.692 421.742,354.693 421.742,272.046 C421.742,189.398 354.744,122.4 272.096,122.4 C189.449,122.4 122.45,189.398 122.45,272.046 C122.45,354.693 189.449,421.692 272.096,421.692 Z" id="Path" stroke="url(#linearGradient-19)" stroke-width="1.52972" opacity="0.35" stroke-linecap="round"></path>
                    <path d="M365.636,365.637 C417.307,313.966 417.307,230.19 365.636,178.519 C313.965,126.848 230.19,126.848 178.519,178.519 C126.848,230.19 126.848,313.966 178.519,365.637 C230.19,417.308 313.965,417.308 365.636,365.637 Z" id="Path" stroke="url(#linearGradient-20)" stroke-width="1.52972" opacity="0.35" stroke-linecap="round"></path>
                    <path d="M272.096,386.96 C335.561,386.96 387.01,335.511 387.01,272.046 C387.01,208.58 335.561,157.132 272.096,157.132 C208.63,157.132 157.182,208.58 157.182,272.046 C157.182,335.511 208.63,386.96 272.096,386.96 Z" id="Path" stroke="url(#linearGradient-19)" stroke-width="1.52972" opacity="0.35" stroke-linecap="round"></path>
                    <path d="M272.574,369.376 C326.467,369.376 370.155,325.687 370.155,271.795 C370.155,217.902 326.467,174.214 272.574,174.214 C218.682,174.214 174.993,217.902 174.993,271.795 C174.993,325.687 218.682,369.376 272.574,369.376 Z" id="Path" stroke="url(#linearGradient-19)" stroke-width="1.52972" opacity="0.35" stroke-linecap="round"></path>
                    <path d="M272.096,352.227 C316.379,352.227 352.278,316.329 352.278,272.046 C352.278,227.763 316.379,191.864 272.096,191.864 C227.813,191.864 191.914,227.763 191.914,272.046 C191.914,316.329 227.813,352.227 272.096,352.227 Z" id="Path" stroke="url(#linearGradient-21)" stroke-width="1.52972" opacity="0.35" stroke-linecap="round"></path>
                    <path d="M316.472,316.472 C340.99,291.954 340.99,252.202 316.472,227.684 C291.954,203.167 252.202,203.167 227.685,227.684 C203.167,252.202 203.167,291.954 227.685,316.472 C252.202,340.989 291.954,340.989 316.472,316.472 Z" id="Path" stroke="url(#linearGradient-22)" stroke-width="1.52972" opacity="0.35" stroke-linecap="round"></path>
                    <path d="M272.096,317.495 C297.197,317.495 317.546,297.147 317.546,272.046 C317.546,246.945 297.197,226.596 272.096,226.596 C246.995,226.596 226.646,246.945 226.646,272.046 C226.646,297.147 246.995,317.495 272.096,317.495 Z" id="Path" stroke="url(#linearGradient-23)" stroke-width="1.52972" opacity="0.35" stroke-linecap="round"></path>
                    <path d="M272.095,300.096 C287.587,300.096 300.146,287.538 300.146,272.046 C300.146,256.554 287.587,243.995 272.095,243.995 C256.604,243.995 244.045,256.554 244.045,272.046 C244.045,287.538 256.604,300.096 272.095,300.096 Z" id="Path" stroke="url(#linearGradient-24)" stroke-width="1.52972" opacity="0.35" stroke-linecap="round"></path>
                    <path d="M282.811,272.046 C282.811,277.934 278.048,282.697 272.16,282.697 C266.272,282.697 261.509,277.934 261.509,272.046 C261.509,266.158 266.272,261.395 272.16,261.395 C278.048,261.395 282.811,266.158 282.811,272.046 Z" id="Path" stroke="url(#linearGradient-19)" stroke-width="1.52972" opacity="0.35" stroke-linecap="round"></path>
                    <g id="Group" transform="translate(191.000000, 191.000000)">
                        <path d="M80.698,161.51 C125.044,161.51 160.994,125.561 160.994,81.215 C160.994,36.869 125.044,0.92 80.698,0.92 C36.353,0.92 0.403,36.869 0.403,81.215 C0.403,125.561 36.353,161.51 80.698,161.51 Z" id="Path" fill="url(#linearGradient-25)" fill-rule="nonzero"></path>
                        <path d="M159.994,81.215 C159.994,125.008 124.492,160.51 80.698,160.51 C36.905,160.51 1.403,125.008 1.403,81.215 C1.403,37.421 36.905,1.92 80.698,1.92 C124.492,1.92 159.994,37.421 159.994,81.215 Z" id="Path" stroke="#00D1FF" stroke-width="2"></path>
                    </g>
                </g>
                <path d="M301.02,324.86 C303.819998,324.86 306.819998,324.62 310.02,324.14 L310.02,308.42 C307.62,309.059999 305.379998,309.38 303.3,309.38 C297.54,309.38 293.060002,307.900001 289.86,304.94 C297.3,301.739999 303.099998,296.579999 307.26,289.46 C311.420002,282.340001 313.5,273.780001 313.5,263.78 C313.5,250.1 309.699998,239.24 302.1,231.2 C294.5,223.16 284.299999,219.14 271.5,219.14 C258.700001,219.14 248.5,223.16 240.9,231.2 C233.300001,239.24 229.5,250.1 229.5,263.78 C229.5,277.46 233.300001,288.32 240.9,296.36 C248.5,304.4 258.699994,308.42 271.5,308.42 L273.18,308.42 C277.5,319.380001 286.780001,324.86 301.02,324.86 Z M271.5,292.58 C264.860035,292.58 259.660034,290.020001 255.9,284.9 C252.140001,279.779999 250.26,272.739999 250.26,263.78 C250.26,254.739999 252.140001,247.680001 255.9,242.6 C259.660001,237.520002 264.859999,234.98 271.5,234.98 C278.140001,234.98 283.32,237.520002 287.04,242.6 C290.76,247.679972 292.62,254.739973 292.62,263.78 C292.62,272.820001 290.76,279.880001 287.04,284.96 C283.32,290.039999 278.140001,292.58 271.5,292.58 Z" id="Q" fill="#000000" fill-rule="nonzero"></path>
            </g>
        </g>
    </g>
</svg>