<?xml version="1.0" encoding="UTF-8"?><!DOCTYPE svg PUBLIC "-//W3C//DTD SVG 1.1//EN" "http://www.w3.org/Graphics/SVG/1.1/DTD/svg11.dtd"><svg xmlns="http://www.w3.org/2000/svg" xmlns:xlink="http://www.w3.org/1999/xlink"><defs>
        <path d="M110.06,55.0920312 L111.98,53.1720312 C112.12,53.0120312 112.12,52.8920312 111.98,52.7520312 L110.96,51.7320312 C111.68,50.6120312 112.1,49.2920312 112.1,47.8520312 C112.1,43.8320312 108.84,40.6320312 104.88,40.6320312 C100.92,40.6320312 97.66,43.8320312 97.66,47.8520312 C97.66,51.8520312 100.92,55.0520312 104.88,55.0520312 C106.24,55.0520312 107.52,54.6720312 108.6,54.0320312 L109.66,55.0920312 C109.78,55.2120312 109.96,55.1920312 110.06,55.0920312 Z M104.88,51.7320312 C102.76,51.7320312 101.1,50.0320312 101.1,47.8520312 C101.1,45.6520312 102.76,43.9520312 104.88,43.9520312 C107,43.9520312 108.66,45.6520312 108.66,47.8520312 C108.66,48.3320312 108.58,48.7720312 108.44,49.1920312 L107.06,47.7920312 C106.92,47.6520312 106.76,47.7120312 106.64,47.7920312 L104.7,49.7120312 C104.54,49.8720312 104.6,49.9920312 104.74,50.1320312 L106.12,51.5320312 C105.74,51.6520312 105.32,51.7320312 104.88,51.7320312 Z M119.18,55.0520312 C122.36,55.0520312 124.66,53.0120312 124.66,49.3320312 L124.66,41.0920312 C124.66,40.9120312 124.54,40.7920312 124.36,40.7920312 L121.54,40.7920312 C121.36,40.7920312 121.24,40.9120312 121.24,41.0920312 L121.24,49.3320312 C121.24,50.8120312 120.6,51.6720312 119.18,51.6720312 C117.78,51.6720312 117.14,50.8120312 117.14,49.3320312 L117.14,41.0920312 C117.14,40.9120312 117.02,40.7920312 116.84,40.7920312 L114.02,40.7920312 C113.84,40.7920312 113.72,40.9120312 113.72,41.0920312 L113.72,49.3320312 C113.72,53.0120312 116.02,55.0520312 119.18,55.0520312 Z M129.18,54.7920312 C129.34,54.7920312 129.46,54.7320312 129.52,54.5520312 L130.16,52.5120312 L134.76,52.5120312 L135.42,54.5520312 C135.48,54.7320312 135.6,54.7920312 135.76,54.7920312 L138.7,54.7920312 C138.92,54.7920312 139.02,54.6520312 138.94,54.4520312 L134.1,41.0320312 C134.04,40.8720312 133.88,40.7920312 133.72,40.7920312 L131.16,40.7920312 C131,40.7920312 130.88,40.8720312 130.82,41.0320312 L126,54.4520312 C125.92,54.6520312 126.02,54.7920312 126.24,54.7920312 L129.18,54.7920312 Z M133.84,49.6320312 L131.08,49.6320312 L132.46,45.3120312 L133.84,49.6320312 Z M144.88,55.0520312 C147.24,55.0520312 149.88,53.6720312 149.88,50.7320312 C149.88,45.8120312 143.56,46.8120312 143.56,44.8320312 C143.56,44.3520312 143.96,43.8520312 144.9,43.8520312 C145.76,43.8520312 146.36,44.1320312 147.38,44.7920312 C147.54,44.8920312 147.68,44.8720312 147.8,44.7120312 L149.26,42.8920312 C149.36,42.7320312 149.36,42.6120312 149.22,42.4720312 C148.02,41.3720312 146.64,40.6320312 144.78,40.6320312 C142.48,40.6320312 140.22,42.0920312 140.22,44.7520312 C140.22,49.3720312 146.54,48.7520312 146.54,50.6920312 C146.54,51.4720312 145.76,51.8320312 144.98,51.8320312 C143.88,51.8320312 143.02,51.4520312 141.94,50.6320312 C141.78,50.4920312 141.6,50.5320312 141.5,50.6720312 L139.96,52.4120312 C139.84,52.5520312 139.86,52.7120312 139.96,52.8320312 C140.88,53.8920312 142.76,55.0520312 144.88,55.0520312 Z M154.02,54.7920312 C154.18,54.7920312 154.3,54.7320312 154.36,54.5520312 L155,52.5120312 L159.6,52.5120312 L160.26,54.5520312 C160.32,54.7320312 160.44,54.7920312 160.6,54.7920312 L163.54,54.7920312 C163.76,54.7920312 163.86,54.6520312 163.78,54.4520312 L158.94,41.0320312 C158.88,40.8720312 158.72,40.7920312 158.56,40.7920312 L156,40.7920312 C155.84,40.7920312 155.72,40.8720312 155.66,41.0320312 L150.84,54.4520312 C150.76,54.6520312 150.86,54.7920312 151.08,54.7920312 L154.02,54.7920312 Z M158.68,49.6320312 L155.92,49.6320312 L157.3,45.3120312 L158.68,49.6320312 Z M168.34,54.7920312 C168.52,54.7920312 168.64,54.6720312 168.64,54.4920312 L168.64,50.1920312 L169.18,50.1920312 L171.98,54.5920312 C172.06,54.7320312 172.18,54.7920312 172.34,54.7920312 L175.32,54.7920312 C175.56,54.7920312 175.66,54.6520312 175.52,54.4320312 L172.46,49.7320312 C174.24,49.0120312 175.18,47.4720312 175.18,45.4920312 C175.18,42.7120312 173.3,40.7920312 169.88,40.7920312 L165.52,40.7920312 C165.34,40.7920312 165.22,40.9120312 165.22,41.0920312 L165.22,54.4920312 C165.22,54.6720312 165.34,54.7920312 165.52,54.7920312 L168.34,54.7920312 Z M169.82,47.1920312 L168.64,47.1920312 L168.64,43.7920312 L169.82,43.7920312 C170.78,43.7920312 171.92,44.1320312 171.92,45.4920312 C171.92,46.8320312 170.78,47.1920312 169.82,47.1920312 Z" id="path-1"/>
    
        <linearGradient x1="73.0554279%" y1="50%" x2="7.3504187%" y2="50%" id="linearGradient-1">
            <stop stop-color="#ED1EFF" offset="0%"/>
            <stop stop-color="#00D1FF" offset="100%"/>
        </linearGradient>
    </defs><symbol id="logo" viewBox="0 0 79 16">
    <title>QUASAR</title>
    
    <g id="Signature" stroke="none" stroke-width="1" fill="none" fill-rule="evenodd">
        <g id="Landing-Page-Concept---Quasar" transform="translate(-97.000000, -40.000000)" fill-rule="nonzero">
            <g id="QUASAR">
                <use fill="#B0B8B1" xlink:href="#path-1"/>
                <use fill="#790098" xlink:href="#path-1"/>
            </g>
        </g>
    </g>
</symbol><symbol id="q" viewBox="0 0 17 21">
    <title>Q</title>
    
    <g id="Signature" stroke="none" stroke-width="1" fill="none" fill-rule="evenodd">
        <g id="Landing-Page-Concept---Quasar" transform="translate(-134.000000, -3604.000000)" fill="url(#linearGradient-1)" fill-rule="nonzero">
            <g id="Group-6" transform="translate(-2.148312, 3558.000000)">
                <path d="M150.658392,66.8514062 C151.188093,66.8514062 151.755629,66.8060033 152.361003,66.7151974 L152.361003,63.7413041 C151.906973,63.8623785 151.483212,63.9229159 151.08972,63.9229159 C150.000049,63.9229159 149.152528,63.6429311 148.547155,63.0829613 C149.954646,62.4775885 151.051884,61.5014251 151.838869,60.1544709 C152.625854,58.8075168 153.019345,57.188145 153.019345,55.2963552 C153.019345,52.708387 152.300465,50.6539034 150.862705,49.1329045 C149.424946,47.6119057 147.495319,46.8514062 145.073829,46.8514062 C142.652338,46.8514062 140.722713,47.6119057 139.284953,49.1329045 C137.847193,50.6539034 137.128312,52.708387 137.128312,55.2963552 C137.128312,57.8843234 137.847193,59.9388069 139.284953,61.4598058 C140.722712,62.9808047 142.652337,63.7413041 145.073829,63.7413041 L145.39165,63.7413041 C146.208903,65.8147058 147.964484,66.8514062 150.658392,66.8514062 Z M145.073829,60.7447093 C143.817687,60.7447093 142.833956,60.2604113 142.122637,59.2918149 C141.411324,58.3232185 141.055668,56.9913985 141.055668,55.2963552 C141.055668,53.5861771 141.411324,52.2505741 142.122637,51.2895447 C142.83395,50.3285161 143.81768,49.848001 145.073829,49.848001 C146.329978,49.848001 147.309924,50.3285161 148.01367,51.2895447 C148.717416,52.2505686 149.069289,53.5861723 149.069289,55.2963552 C149.069289,57.0065332 148.717416,58.3421366 148.01367,59.3031656 C147.309924,60.2641946 146.329978,60.7447093 145.073829,60.7447093 Z" id="Q"/>
            </g>
        </g>
    </g>
</symbol></svg>